<?xml version="1.0" encoding="utf-8"?>
<svg version="1.1" id="Layer_1" xmlns="http://www.w3.org/2000/svg" xmlns:xlink="http://www.w3.org/1999/xlink" x="0px" y="0px"
	 viewBox="-1209 301.2 100 100.2" style="enable-background:new -1209 301.2 100 100.2;" xml:space="preserve">
<path d="M-1136.3,350.6c-6.3-3.1-12.6-3-16.8-4.8c7.1-0.6,14.3,2.1,15.8,2.5c-0.7-2.9-1.7-5.9-3.5-8.3c-9.3-2.6-19.1,1.3-19.1,10.6
	c0,6.6,3.4,9.2,7.5,11.3c2.5,1.3,4.9,2.5,5.9,4.8c-3.2-3.4-15.6-3.8-15.7-15.6c-0.1-8.1,7-14.2,16.2-14.2c2.4,0,4.4,0.4,6.3,1.1
	c0.5-1.7,0.3-3.9,0.1-4.7c-3.9-2.1-9.1-1-12.8-1.6c-1.9-0.3-1.1-3.6-4.8-3.6c-3.1,0-5,2.9-5,3.7c0,1.8-1.2,3.2-2.7,5.1
	c-2.9,3.6-5.6,7.4-7.2,12.6c0.1-2.1,0.5-4,1.2-5.9c-1.9-6.4-11.1-8.8-15.8-4.2c-6.1,5.9-4.7,21.4,0.9,27.6
	c1.6-3.8,9.5-10.1,11.6-12.3c-0.2,1.4-1.2,3.4-3.2,5.3c-2.6,2.5-6.2,6.4-7.2,10.7c3,13.5,15.7,25.8,34.8,25.8c5,0,8.3-0.6,11.4-3.1
	c-5.4-5.6-4.6-18.3-5.5-23.5c1,1.4,1.4,3.9,2,7.1c0.9,4.9,1.9,11,5.7,14.8c7.2,0,10.4-6.2,10.4-20
	C-1125.9,360.2-1128.8,354.2-1136.3,350.6z"/>
<path d="M-1175.1,312.7c0.9-0.2,2.8-0.6,3.7-0.9c-0.6-1-1.7-2.2-2.5-3.2c-0.5-0.5-1.8,0-2.4,0.3c-0.4,0.3-0.8,0.7-0.8,1.1
	c0.4,0.7,0.9,1.4,1.5,2.1C-1175.4,312.3-1175.2,312.5-1175.1,312.7z"/>
<path d="M-1167.7,308c4.4,7.2,3.1,9,2.3,10.1c-6.4,0-12.2,7.4-11.2,17.7c3.3,0.9,5.1,2.7,6.5,5.4c1.2-2.3,2.6-4.1,3.8-5.6
	c1.3-1.6,2.3-2.8,2.3-4c0-1.6,2.5-5.4,6.6-5.4c3.3,0,4.3,2,4.9,3.1c0.1,0.2,0.2,0.4,0.3,0.6c1.3,0.2,2.7,0.3,4.1,0.4
	c0.8,0,1.6,0.1,2.4,0.2c0.8-10.5-9-11.3-9-15.6c0-1.4,0.5-4.4,1.1-7.1c-0.5-0.3-3.2-1.3-3.9-0.1c-0.4,6.8-0.1,9.1-2,9.5
	c-1.8,0.4-2.2-5.9-5.1-10.5c-0.1-0.1-0.4-0.1-0.5-0.1C-1166.4,306.5-1167.9,307.7-1167.7,308z"/>
<path d="M-1188.6,309.6c-1.8-1.7-4.5,4.2-2.9,4.9c4.3,2,6.1,4.9,6.1,7c0,1.8-4.3,7-1.5,15.6c2.3-1.7,5.1-2.3,7.9-1.9
	c-0.6-8.9,3.9-17.5,13-18.3c0.5-2.5-0.2-4.5-1.2-6.1c-4.9,1.5-7.5,4.1-10.4,3.7C-1181.4,314-1185.2,312.9-1188.6,309.6z"/>
</svg>
