<?xml version="1.0" encoding="utf-8"?>
<!-- Generator: Adobe Illustrator 19.0.0, SVG Export Plug-In . SVG Version: 6.00 Build 0)  -->
<svg version="1.1" id="Layer_1" xmlns="http://www.w3.org/2000/svg" xmlns:xlink="http://www.w3.org/1999/xlink" x="0px" y="0px"
	 viewBox="-1209 301.2 100.1 100.1" style="enable-background:new -1209 301.2 100.1 100.1;" xml:space="preserve">
<g>
	<g>
		<path d="M-1140.5,353l0.2,0.3c0.2,0.3,0.3,0.6,0.5,0.9c0.2-0.2,0.5-0.4,0.7-0.5c-1-2.2-1.7-4.4-1.9-6.4c-1.3-0.3-2.7-0.4-4.3-0.2
			c0.5,0.2,0.9,0.5,1.3,0.9C-1142.5,349.2-1141.5,351.1-1140.5,353z"/>
		<path d="M-1119.9,359.3L-1119.9,359.3c-0.2-0.1-0.4-0.2-0.6-0.3c-0.4-0.1-0.8-0.2-1.2-0.3c-0.8-0.2-1.7-0.3-2.5-0.4
			c0.9-0.1,1.7-0.3,2.6-0.4c0.4,0,0.9-0.1,1.3,0c0.2,0,0.4,0,0.6,0c6.2-5.6,5.3-12.2,4.1-15.7c-1.4-4.3-4.2-7.3-5.7-7.8
			c-0.2,0.2-0.4,0.4-0.6,0.5c-0.4,0.3-0.7,0.5-1.1,0.8c-0.8,0.4-1.6,0.8-2.4,0.9c0.8-0.3,1.4-0.9,2-1.5c0.3-0.3,0.5-0.6,0.8-0.9
			c0.2-0.2,0.3-0.5,0.5-0.7c-0.1-5.5-6.5-9.3-12.4-9.3c-4.4,0-7.5,1.6-8.8,4.4c-1.2,2.8-0.6,6.4,1.6,8.9c1,1.1,2.2,1.8,3.5,2.2
			l0.8,0.2c0.2,0,0.4,0.1,0.5,0.1c0.5,0.1,0.9,0.1,1.4,0.1c1,0,1.9-0.1,2.9-0.5c-0.8,0.6-1.8,1-2.8,1.2c-0.5,0.1-1,0.2-1.5,0.3
			c-0.3,0-0.5,0.1-0.8,0.1c-0.1,0-0.2,0-0.3,0c-1.1,1.3-1.6,3.2-1.4,5.5c0.2,2,0.9,4.4,1.9,6.7l0,0c0.2,0,0.4,0,0.6,0.1
			c0.4,0.1,0.8,0.2,1.2,0.3c0.8,0.3,1.5,0.6,2.2,1c-0.8-0.1-1.5-0.2-2.3-0.2c-0.4,0-0.7,0-1.1,0.1c-0.2,0-0.4,0.1-0.5,0.1l-0.3,0.1
			l0,0c-0.6,0.3-1.1,0.7-1.7,1.2c-2.8,3.1-3.6,9.4-1.6,13.9c1.1,2.6,3.6,5.6,8.9,5.6c7.8,0,12.3-4.5,13.8-8.3
			C-1117.3,364-1117.8,361.1-1119.9,359.3z"/>
		<path d="M-1141.1,345.7c0-2,0.4-3.6,1.3-5c-0.9-0.4-1.8-1-2.6-1.7c-2.9,3.1-7.1,5.4-11.1,6c0.1,0.8,0.4,1.5,0.8,2.1
			C-1148.2,345.8-1145.3,344.9-1141.1,345.7z"/>
		<path d="M-1150.4,385.5c0.7,0.2,1.4,0.2,2-0.1l0-0.1c-0.8-11.1-1.6-23.6,6.3-32.1c-0.7-1.4-1.5-2.6-2.4-3.6
			c-7.8,8.1-7,19.2-6.2,31C-1150.6,382.2-1150.5,383.9-1150.4,385.5z"/>
	</g>
	<g>
		<path d="M-1178,345.5l-0.2,0.3c-0.1,0.3-0.3,0.6-0.5,0.9c-0.2-0.2-0.5-0.4-0.7-0.5c1-2.2,1.7-4.4,1.9-6.4c1.3-0.3,2.7-0.4,4.3-0.2
			c-0.5,0.2-0.9,0.5-1.3,0.9C-1176,341.7-1177,343.6-1178,345.5z"/>
		<path d="M-1198.5,351.8L-1198.5,351.8c0.2-0.1,0.4-0.2,0.6-0.3c0.4-0.1,0.8-0.2,1.2-0.3c0.8-0.2,1.7-0.3,2.5-0.4
			c-0.9-0.1-1.7-0.3-2.6-0.4c-0.4,0-0.9-0.1-1.3,0c-0.2,0-0.4,0-0.6,0c-6.2-5.6-5.3-12.2-4.1-15.7c1.4-4.3,4.2-7.3,5.7-7.8
			c0.2,0.2,0.4,0.4,0.6,0.5c0.3,0.3,0.7,0.5,1.1,0.7c0.8,0.4,1.6,0.8,2.4,0.9c-0.8-0.3-1.4-0.9-2-1.5c-0.3-0.3-0.5-0.6-0.8-0.9
			c-0.2-0.2-0.3-0.5-0.5-0.7c0.1-5.5,6.5-9.3,12.4-9.3c4.4,0,7.5,1.6,8.8,4.4c1.2,2.8,0.6,6.4-1.6,8.9c-1,1.1-2.2,1.8-3.5,2.2
			l-0.8,0.2c-0.2,0-0.4,0.1-0.5,0.1c-0.5,0.1-0.9,0.1-1.4,0.1c-1,0-1.9-0.1-2.9-0.5c0.8,0.6,1.8,1,2.8,1.2c0.5,0.1,1,0.2,1.5,0.3
			c0.3,0,0.5,0.1,0.8,0.1c0.1,0,0.2,0,0.3,0c1.1,1.3,1.6,3.2,1.4,5.5c-0.2,2-0.9,4.4-1.9,6.7l0,0c-0.2,0-0.4,0-0.6,0.1
			c-0.4,0.1-0.8,0.2-1.2,0.3c-0.8,0.3-1.5,0.6-2.2,1c0.8-0.1,1.5-0.2,2.3-0.2c0.4,0,0.7,0,1.1,0.1c0.2,0,0.4,0.1,0.5,0.1l0.3,0.1
			l0,0c0.6,0.3,1.1,0.7,1.7,1.2c2.8,3.1,3.6,9.4,1.6,13.9c-1.1,2.6-3.6,5.6-8.9,5.6c-7.8,0-12.3-4.5-13.8-8.3
			C-1201.1,356.5-1200.6,353.6-1198.5,351.8z"/>
		<path d="M-1169.5,339.4L-1169.5,339.4l0.2-0.7c-3.1-0.7-5.7-0.9-8-0.5c0-2-0.4-3.6-1.3-5c0.9-0.4,1.8-1,2.6-1.7
			c2.9,3.1,7.1,5.4,11.1,6c-0.1,0.8-0.4,1.5-0.8,2.1c-1.2-0.4-2.4-0.7-3.6-1L-1169.5,339.4L-1169.5,339.4
			C-1169.5,339.4-1169.5,339.4-1169.5,339.4z"/>
		<path d="M-1168.1,378c-0.7,0.2-1.4,0.2-2-0.1l0-0.1c0.8-11.1,1.6-23.6-6.3-32.1c0.7-1.4,1.5-2.6,2.4-3.6c7.8,8.1,7,19.2,6.2,31
			C-1167.9,374.7-1168,376.4-1168.1,378z"/>
	</g>
</g>
</svg>
