<?xml version="1.0" encoding="utf-8"?>
<!-- Generator: Adobe Illustrator 19.0.0, SVG Export Plug-In . SVG Version: 6.00 Build 0)  -->
<svg version="1.1" id="Layer_1" xmlns="http://www.w3.org/2000/svg" xmlns:xlink="http://www.w3.org/1999/xlink" x="0px" y="0px"
	 viewBox="-1209 301.2 100.1 100.1" style="enable-background:new -1209 301.2 100.1 100.1;" xml:space="preserve">
<g>
	<g>
		<path d="M-1154.8,357.7c-1.1,0.4-1.5,1.7-1.7,2.7c-0.1,0.7-0.9,2.1-2.2,3c-1.8,1.2-3.5,0.8-4.7,0.5c-0.4-0.1-0.7-0.2-0.9-0.2
			c-0.6,0-0.8,0.5-1.2,2c-0.5,1.8-1.2,4.6-4.9,4.6c-0.6,0-1.3-0.2-2.1-0.5c-1.2-0.4-2.7-0.9-3.5-0.4c-0.4,0.3-0.7,0.8-0.9,1.6
			c-0.9,4.2-3.2,4.3-5.2,4.4c-1,0-2.1,0.1-3,0.6c1.4,0.2,3.2,1.1,5.4,0.7c2.8-0.4,3.7-1.9,6.9-3.3c2.3-1,5.2-0.2,7.7-1.9
			c1.7-1.2,2-4.3,4.2-5.1c1.1-0.4,6.2-0.4,6.4-3.1c0.3-3.4,4.2-4.2,4.9-4.5C-1151.4,357.5-1153.7,357.3-1154.8,357.7z"/>
		<path d="M-1182.3,373.9c1.9-0.1,3.2-0.1,3.9-3.2c0.2-0.8,0.1-1,0.5-1.5c-4.7-0.4-9.1-2.5-11.1-6.7c5.4,4.4,6.8,4.7,12.3,5.6
			c2.1-1.1,5.1,0.7,6.2,0.7c2.5,0,3-1.7,3.5-3.5c0.4-1.4,0.8-3.1,2.6-3.1c1.3,0,3,1.1,4.8-0.1c1-0.7,1.5-1.8,1.6-2
			c0.4-2.5,1.7-3.4,2.6-3.8c1.5-0.5,3.3-0.1,5.2,1.2c0.1-1.1,0.3-2.9,0.4-4c-1.8-4.7-4-5.1-6.9-5.9c2.4-0.7,5.4,0.4,6.9,3.4
			c0-7.7-1.6-17-5.4-22.1c-4.5-1.8-9.3-1.8-15.5-0.7c-13.3,2.3-22.3,17.9-27.2,31.3c-2.5,6.8-6.1,10.9-6.1,11.5c0,1.9,4.1,6.7,9,6.7
			c2.2,0,4.7-1.2,7.6-1.6C-1185.8,374-1183.9,374-1182.3,373.9z"/>
		<path d="M-1144.5,360.3c-0.7-1.2-2.1-2-3-3.1c-0.4-0.5-0.8-1.2-1-1.9c-0.1,1.4-0.2,2.6-0.4,3.8c2.2,0.5,3.7,4.7,3.7,6.8
			c0.5,0.6,1.6,0.6,2.1,0.1C-1143.4,364.1-1143.5,362-1144.5,360.3z"/>
		<path d="M-1117.2,338.8c-3.2,0-5.8-2.9-8.9-4.2c-3.7-1.5-12.9-1.1-14.5-0.9c-7.1,5.5-6,10.3-4.9,13.1c0.8-1.1,1.8-2,3-2.5
			c-5.1,5.1-3.8,10-1.7,12.2c3.6-0.2,17.5-2.1,21.7-8.9c0.5-1.8,0.3-3.2-0.7-5.1c1.3,0.7,2,2.5,1.9,4.2c2.9,0.2,7.5-1.5,7.2-5.8
			C-1114.2,339.1-1115.1,338.8-1117.2,338.8z"/>
		<path d="M-1145.1,356.5c-1-0.6-2.3-2.9-1.9-5.8c0.1-0.8,0.4-1.6,0.7-2.4l0,0c-1.2-2.6-2.6-10.1,4.7-15c-4.4-1.2-8.6-2.9-12.3-4.1
			c4.6,7.1,5.9,16.4,5.5,24.5c1.1,4.4,2.6,3.1,4.4,6.1c0.8,1.3,1.2,2.7,1.4,4.2c0.1,0.5,0.1,1,0.1,1.4c0.6,0.6,1.7,0.1,1.9-0.4
			C-1140.4,361.7-1141.7,358.4-1145.1,356.5z"/>
	</g>
</g>
</svg>
