<?xml version="1.0" encoding="utf-8"?>
<!-- Generator: Adobe Illustrator 19.0.0, SVG Export Plug-In . SVG Version: 6.00 Build 0)  -->
<svg version="1.1" id="Layer_1" xmlns="http://www.w3.org/2000/svg" xmlns:xlink="http://www.w3.org/1999/xlink" x="0px" y="0px"
	 viewBox="-1209 301.2 100 100.1" style="enable-background:new -1209 301.2 100 100.1;" xml:space="preserve">
<path d="M-1157.3,319.5c0-0.5,0-1,0-1.5c0-0.4,0-0.9,0-1.3c-0.7,0.3-1.4,0.5-2.2,0.5c-0.8,0-1.6-0.1-2.3-0.5c0.1,1,0.2,2.1,0.2,3.1
	c0.7,0.1,1.4,0.1,2,0C-1158.8,319.8-1158,319.7-1157.3,319.5z"/>
<path d="M-1159.2,329.7c0.9,0,1.7-0.2,2.5-0.5c0.4-0.2,0.8-0.4,1.2-0.6c-0.5-1.1-0.8-2.2-1.1-3.3c-0.2,0.1-0.4,0.2-0.6,0.3
	c-0.7,0.3-1.5,0.5-2.4,0.5c-0.8,0-1.6-0.1-2.4-0.4c0,0,0,0,0,0c-0.2,1.2-0.5,2.4-0.9,3.5c0.3,0.1,0.7,0.2,1,0.3
	C-1160.9,329.7-1160,329.8-1159.2,329.7z"/>
<path d="M-1153.8,334.9c-0.4,0.5-0.9,0.9-1.5,1.3c0.8,0.7,1.7,1.3,2.6,2.1c0.7-1,1.6-2,2.4-3c1.6-1.9,3.2-3.6,4.1-5.7
	c0.4-1,0.6-2.1,0.6-3.2c0-0.6,0-1.1-0.1-1.7c-0.1-0.5-0.3-1.1-0.4-1.2c-0.1-0.1,0-0.1-0.2-0.1c-0.1,0-0.3,0.1-0.5,0.3
	c-0.4,0.3-0.7,0.8-0.8,1.3c-0.4,1-0.4,2.3,0.4,3.2c-0.5-0.3-1-0.8-1.2-1.5c-0.2-0.6-0.3-1.3-0.1-2c0.1-0.7,0.4-1.3,0.8-1.9
	c0.2-0.3,0.5-0.6,1-0.7c0.5-0.2,1.2,0,1.5,0.3c0.7,0.7,0.9,1.4,1.1,2c0.2,0.7,0.2,1.3,0.2,2c0.1,1.3-0.1,2.7-0.7,3.9
	c-0.5,1.2-1.3,2.3-2.1,3.3c-0.8,1-1.7,1.8-2.6,2.6c-1.3,1.2-2.7,2.4-3.9,3.8c-0.6,1.5-1.2,3-1.5,4.8c-0.4,2.3-0.6,4.9-0.7,7.5
	c2.7,1,5.4,1.7,8.2,2c3.4,0.3,6.8,0.2,10.1-0.3c3.3-0.5,6.6-1.5,9.7-2.9c2.5-1.1,4.8-2.5,6.9-4.4c-5-10-10.9-16.1-11.3-16.7
	c-4.7-6.8-8.4-12.5-12.4-12.5c-2.5,0-6.5,1.9-6.5,8.9c0,1.1,0.1,2.3,0.1,3.5c0,1.3-0.1,2.6-0.3,3.8c-0.1,0.4-0.2,0.7-0.3,1.1
	c-0.5-0.5-1-1-1.4-1.6C-1153,333.8-1153.4,334.4-1153.8,334.9z"/>
<path d="M-1161.6,324.7c0.7,0.1,1.4,0.1,2.1,0.1c0.7,0,1.4-0.1,2.1-0.2c0.2,0,0.5-0.1,0.7-0.1c-0.3-1.2-0.4-2.5-0.5-3.8
	c-0.7,0.3-1.5,0.5-2.2,0.5c-0.7,0-1.4,0-2.1-0.2c0,1.3,0,2.5-0.2,3.7C-1161.7,324.7-1161.6,324.7-1161.6,324.7z"/>
<path d="M-1159.5,315.8c0.7,0,1.4-0.1,2.2-0.3c0,0,0.1,0,0.1,0c0.1-1.6,0.3-3.3,0.5-4.9c0,0-0.1,0.1-0.1,0.1
	c-0.8,0.5-1.7,0.8-2.6,0.8c-0.9,0-1.9-0.2-2.7-0.7c-0.1-0.1-0.2-0.2-0.3-0.3c0.2,1.7,0.4,3.3,0.5,5c0.1,0,0.2,0.1,0.2,0.1
	C-1160.9,315.8-1160.2,315.9-1159.5,315.8z"/>
<path d="M-1161.5,309.6c0.7,0.2,1.4,0.2,2.1,0.2c0.7,0,1.4-0.1,2.1-0.3c0.3-0.1,0.6-0.2,0.9-0.3c0,0,0,0,0,0c0,0,0-0.1,0-0.1
	c0-2.9-6.5-2.1-6.1,0c0,0,0,0.1,0,0.2C-1162.2,309.4-1161.9,309.5-1161.5,309.6z"/>
<path d="M-1146.2,385.4c2.5-0.9,4.9-2.1,7.2-3.3c3.5-2,6.8-4.3,9.9-6.9c3.1-2.6,5.9-5.5,8.4-8.6c1.8-2.4,3.5-4.9,4.8-7.6
	c-1.2-4.4-2.8-8.3-4.5-11.9c-1.7,2.2-4,3.9-6.4,5.2c-3.1,1.7-6.5,2.9-10,3.5c-3.5,0.6-7.1,0.6-10.6,0c-2.8-0.5-5.6-1.5-8-3
	c-0.1,2.1,0,4.2,0,6.1C-1155.5,373.6-1151.5,381.2-1146.2,385.4z"/>
<path d="M-1195.7,349.4c1.6,0.8,3.2,1.5,4.8,2.1c3.3,1.2,6.7,2.1,10.2,2.7c1.7,0.3,3.5,0.6,5.2,0.7c1.7,0.2,3.5,0.2,5.2,0.1
	c1.7-0.1,3.5-0.3,5.2-0.7c1-0.2,2-0.6,2.9-1.1c-0.1-2.9-0.2-5.8-0.7-8.4c-0.4-2-1-3.7-1.7-5.3c-1.3-1-2.6-1.9-3.8-3
	c-1.8-1.6-3.6-3.3-4.8-5.7c-0.6-1.2-0.9-2.5-0.9-3.8c0-0.6,0.1-1.3,0.2-2c0.2-0.7,0.4-1.3,0.8-1.9c0.2-0.3,0.5-0.6,0.9-0.8
	c0.4-0.2,0.8-0.3,1.3-0.2c0.9,0.2,1.4,1,1.6,1.6c0.3,1.4-0.3,2.7-1,3.6c0.4-1.1,0.5-2.4,0.1-3.3c-0.2-0.5-0.6-0.7-0.9-0.7
	c-0.3,0-0.6,0.2-0.8,0.6c-0.5,0.8-0.5,1.9-0.5,3c0,1.1,0.3,2.1,0.8,3.1c1,2,2.5,3.7,4.2,5.5c1,1.1,2.1,2.2,3.1,3.4
	c0.8-1,1.6-2,2.4-3c-0.1,0-0.2-0.1-0.3-0.1c-0.6-0.2-1.1-0.6-1.6-1c-0.5-0.4-0.9-1-1.1-1.6c0,0,0-0.1-0.1-0.2
	c-0.4,0.5-0.9,1-1.4,1.5c-0.1-0.3-0.1-0.6-0.2-0.9c-0.3-1.2-0.3-2.5-0.3-3.8c0-1.2,0.1-2.4,0.1-3.5c0-6.9-3.9-8.9-6.5-8.9
	c-4,0-7.7,5.7-12.4,12.5c-0.4,0.5-6.9,7.3-12,18.2C-1197.2,348.6-1196.5,349-1195.7,349.4z"/>
<path d="M-1156.1,335.5l1.3-1.4l1.2-1.5c0.1-0.1,0.1-0.2,0.2-0.3c-0.7-1-1.3-2-1.7-3c-0.3,0.4-0.7,0.7-1.1,0.9
	c-0.9,0.5-1.9,0.8-2.9,0.9c-1,0-2.1-0.1-3-0.5c-0.3-0.2-0.7-0.4-1-0.6c-0.4,0.8-0.8,1.6-1.3,2.4c0.1,0.1,0.2,0.3,0.3,0.4
	c0.4,0.4,0.7,0.8,1.1,1.1c0.5,0.4,1,0.9,1.5,1.4c0.8-1.2,1.7-2.4,2.4-3.6C-1158.3,333.3-1157.3,334.4-1156.1,335.5z"/>
<path d="M-1115.7,359.9c-0.9,2.7-2.3,5.2-3.9,7.5c-2.3,3.4-5.2,6.5-8.4,9.2c-3.2,2.7-6.7,5-10.4,6.8c-2.3,1.1-4.7,2-7.2,2.6
	c6.1,4.4,13.8,4.7,19.2,6c2.8,0.7,4.9,3.4,7.9,3.4c1.7,0,4.7-11.4,4.7-20.7C-1113.7,369.3-1114.5,364.4-1115.7,359.9z"/>
<path d="M-1164.9,355.1c-1.7,0.7-3.5,1.1-5.3,1.3c-3.6,0.4-7.3,0.1-10.9-0.5c-3.6-0.7-7.1-1.7-10.4-3.2c-1.7-0.7-3.3-1.6-4.8-2.6
	c-0.7-0.5-1.3-0.9-1.9-1.5c-1.8,3.9-3.4,8.3-4.5,13.2c1,1.5,2.1,3,3.3,4.4c2.7,3.1,5.6,6.1,8.7,8.8c3.1,2.7,6.4,5.2,9.9,7.5
	c2.4,1.5,4.8,2.9,7.4,4.1c6.2-3.9,11-11.5,11-27.8c0-1.6,0-3.3,0-5.1C-1163.1,354.3-1164,354.8-1164.9,355.1z"/>
<path d="M-1181.5,383.7c-3.7-2.1-7.1-4.6-10.3-7.3c-3.2-2.8-6.1-5.9-8.6-9.3c-0.9-1.2-1.7-2.5-2.5-3.8c-0.7,3.6-1.1,7.4-1.1,11.3
	c0,9.3,3,20.7,4.7,20.7c3,0,5.1-2.7,7.9-3.4c4.9-1.2,11.7-1.5,17.5-4.9C-1176.6,386.2-1179.1,385-1181.5,383.7z"/>
</svg>
