<?xml version="1.0" encoding="utf-8"?>
<!-- Generator: Adobe Illustrator 19.0.0, SVG Export Plug-In . SVG Version: 6.00 Build 0)  -->
<svg version="1.1" id="Layer_1" xmlns="http://www.w3.org/2000/svg" xmlns:xlink="http://www.w3.org/1999/xlink" x="0px" y="0px"
	 viewBox="-1209 301.2 100.1 100.1" style="enable-background:new -1209 301.2 100.1 100.1;" xml:space="preserve">
<g>
	<path d="M-1156.3,369.5c-0.1-0.6-0.2-1.2-0.3-1.8c-2.2-3.6-3.7-7.9-4.6-12.6c-0.3,0.1-0.7,0.1-1.1,0.1c-0.3,0-0.5,0-0.7,0
		c0.5,3.5,1.8,7.6,3.5,13c1.1,3.3,2.3,7,3.6,11.5c1.2-0.8,2.1-1.8,2.2-2.9C-1155.8,373.5-1156.1,371.5-1156.3,369.5z"/>
	<path d="M-1168.3,369.2c-1.6,1.6-3.8,1.3-5.6,1c-0.9,1.6-2.6,1.9-4.2,1.5c0.2,1.7,0.2,3.5-0.6,5.1c0.4-2.2-0.2-4.1-1.2-6
		c-1.6-0.3-6.4,0.6-5.7-3.9c-4.5-2.1-5.4-5.3-4.4-7.6c-1.4-0.3-2.9-0.5-4.3-0.1c1.2-0.8,2.4-1,3.6-1.2c-0.6-1.2-0.7-4,0.5-5.3
		c1.3-1.4-1.3-6.3,5.5-8.6c-1.7-2.1-2.7-4.4-3-6.7c0.5,1.4,1.2,2.6,2.1,3.7c0.7,0.9,1.4,1.5,2.2,2.2l0.4,0.3l0.1,0.1
		c2.3-0.4,4.5-0.4,6.7,0.5c-0.5-3.8,0.8-9.6,3.8-12c-3-0.6-5.5-1.6-9.4-1.6c-15.1,0-21.9,15.3-21.9,26.2c0,17.1,12.9,26,25.6,26
		c3.7,0,7.1-0.8,10-2.2C-1167.7,376.2-1167.8,372.5-1168.3,369.2z"/>
	<path d="M-1145.8,352.7c-0.4,3.3,3.1,8.3,4.5,2C-1140,348.2-1145,345.5-1145.8,352.7z"/>
	<path d="M-1176.9,320.2c-0.7,0.8,1.5,8.6,1.7,9.4c1.2,0.3,3.1,0.8,4.3,1.1c-0.2-3.7-1.3-8.2-2.1-10.9
		C-1173.1,319.2-1176,319.1-1176.9,320.2z"/>
	<path d="M-1147.5,352.5c0.2-1.5,0.7-3,1.6-4.2c-0.6,0.1-1.2,0.2-1.8,0.3c-0.6,0.2-1.1,0.3-1.6,0.5c-1.5,0.5-2.8,0.9-4.6,0.9
		c-0.5,0-1.1-0.1-1.4-0.1l-0.1,0c-0.5,0-0.7,0.4-1.3,1.5c-0.6,1-1.3,2.4-2.9,3.2c0.7,4,2,7.8,3.7,11c1.1-1.9,2.1-3.5,3.4-4.7
		c0,0,0-0.1,0-0.1c-0.1-0.2-0.1-0.5-0.2-0.7c-0.2-0.5-0.4-0.9-0.6-1.3c-0.5-0.8-1.3-1.6-2-2.3c1,0.5,1.9,1,2.7,1.7
		c0.4,0.4,0.8,0.8,1.1,1.3c0.1,0.1,0.2,0.3,0.3,0.4c1.3-0.9,3-1.5,5.3-1.9C-1147.3,356.6-1147.7,354.4-1147.5,352.5z"/>
	<path d="M-1126.2,337.3c3.1-0.5,5.3-3.7,5.5-5.1h0c1.8,0,6.7-5.8,6.7-7.8c0-0.7-0.2-1.3-2.2-1.3c-1.7,0-6.5,1-7.8,3.1
		c-2.7-0.8-4.8,0.2-6.3,2.6c-4.4,0-4.7,0.8-6.1,2.8c-2.3-1.3-5.6-1.3-6.8,1.2c-2.3-0.1-3-0.8-5.4,0.9c-2.6-2.2-5.3-1.6-7.5,0.6
		c-1-1.8-4-3.3-6.5-1.3c-1.5,0.3-3.9,0-4.8-0.2c0.1,0.5,0.2,1,0.3,1.7c0.3,4.3-2,12.6-6.1,13.1c-0.1,0-0.2,0-0.3,0
		c-0.9,0-1.6-0.5-2.1-1.3c-1.3-1-3.4-1.3-4.5-1.3c-6.3,0-7.9,3-7.9,4.8c0,2.7-0.4,3.3-1,3.9c-0.2,0.2-0.4,0.5-0.4,2.2
		c0,1.6,0.7,1.5,2.5,2c-1,1-1.7,1.4-1.7,2.9c0,2.3,2.2,3.6,3.9,4.4c0.4,0.2,0.9,0.4,0.9,1c0,0.3,0,0.5-0.1,0.8
		c0,0.2-0.1,0.5-0.1,0.7c0,0.5,0.5,1,1.6,1c3,0,3.7,0.4,4.4,1c0.2,0.2,0.4,0.3,1.4,0.3c0.8,0,1.1-0.6,1.3-1.1l0.2-0.6l0.7,0
		c1.1,0.2,2,0.4,2.8,0.4c2.4,0,2.6-1.7,2.6-2.3c0-0.1,0-0.2,0-0.2c0,0-2.5-9.9-2.3-11.7c0.1-1.2-0.7-2.4,5.1-1.4
		c1,0.2,2.1,0.4,4,0.4c2.6,0,3.3-1.4,4.1-2.8c0.6-1.1,1.3-2.4,2.9-2.4c0,0,0.1,0,0.2,0c0.2,0,0.8,0.1,1.2,0.1c2,0,3.5-0.8,5.7-1.4
		c1.2-0.3,2.4-0.5,3.6-0.5l0,0l2.1,0c3.9-0.1,7.2-3.2,10-5.7C-1130.5,341.6-1126.9,339.3-1126.2,337.3z"/>
	<path d="M-1164,377.6l1-0.9l0.5,1.5c0.4,1,1.1,2.9,1.5,3.3c1-0.1,2.3-0.4,3.4-0.9c-1.3-4.6-2.6-8.4-3.7-11.8
		c-1.8-5.7-3.2-9.9-3.6-13.7c-0.7-0.1-1.2-0.2-1.7-0.2c-1.3-0.2-1.9-0.3-3,0.3c0,1.5,0.5,3.4,1.2,5.8c1.3,4.5,2.9,10.6,2.1,18.4
		C-1165.5,378.8-1164.7,378.2-1164,377.6z"/>
	<path d="M-1166.9,331c1.4,0.1,2.7,0,3.9-0.3c-0.2-1.4-0.4-2.7-0.4-3.7c-0.1-0.7-0.1-1.4-0.2-1.8c-0.1-0.3-0.6-0.6-1.3-0.6
		c-0.7,0-1.4,0.3-1.7,0.7c-0.2,0.3-0.3,0.6-0.2,1.1c0.2,0.9,0.1,2.1,0,3.2C-1166.9,330-1166.9,330.5-1166.9,331z"/>
	<path d="M-1171.4,344.4c1.6-2.3,2.7-6.6,2.5-9.7c-0.4-5.6-5.9,0.7-5.8,8C-1174.6,346.7-1173,346.7-1171.4,344.4z"/>
</g>
</svg>
