    <svg xmlns="http://www.w3.org/2000/svg" xmlns:xlink="http://www.w3.org/1999/xlink" version="1.1" xml:space="preserve"
    >
        <g id="heart-img">
            <path fill="#000000" d="M29.305,61.237c0.595,1.104,1.035,1.92,1.331,3.696c0.296,1.774,0.933,4.691,2.115,6.32   c1.183,1.626,3.062,5.362,9.272,8.025c6.212,2.662,5.916,3.104,9.909,3.992c3.993,0.889,6.479,0.537,8.253,1.277   s3.726,3.16,10.824,3.604c7.1,0.441,8.282-6.94,8.282-6.94s2.515-12.497,1.332-17.167c-1.104-4.354,1.234-4.309-3.846-11.535   c-4.305-6.123-4.209-9.605-5.244-11.084s-1.299-6.452-3.222-7.191c-1.922-0.74-4.022-2.011-5.288-1.246   c-2.883,1.742-1.621,4.176-3.889,4.069c-1.034-0.048-4.119-0.878-5.206-0.485c-1.1,0.397-2.78-1.5-5.03-0.486 c-1.157,0.522-2.735,1.486-3.917,2.226c-1.184,0.739-2.81,0.147-4.289-0.888c-1.479-1.035-2.622-1.494-4.544-2.529   s-4.413-1.368-5.824,0c-1.211,1.173-3.238,3.121-3.534,4.156c-0.296,1.035-1.923,4.584-1.479,6.212   c0.443,1.626-0.453,2.634-0.706,3.311c-0.368,0.986-0.483,6.007,0.629,7.189C26.347,56.948,28.27,59.314,29.305,61.237z"/>
            <path fill="#000000" d="M48.613,82.996c3.999,1.665,7.424,1.624,10.166,1.86V95.98c0,1.059-0.261,2.039-4.837,2.02   c-3.527-0.018-5.368-0.433-5.328-1.96L48.613,82.996z"/>
            <path fill="#000000" d="M24.224,47.892c-0.41,0.52-0.438,0.936-0.531,1.554c-0.138,0.931-0.021,4.355,0.385,5.623   c0.117,0.365,2.466,3.162,2.576,3.271c0.109,0.108,0.653,0.886,0.762,0.994c0,0-2.104,0.255-3.591,0.618s-4.279,1.396-5.368,1.705   c-1.088,0.309-0.671,0.162-1.215,0.326c-0.543,0.163-1.795-0.164-2.394-1.615c-0.599-1.45-1.469-2.61-0.218-3.373   c1.251-0.762,2.902-1.214,3.609-1.45c0.708-0.235,2.539-0.543,2.956-0.671c0.417-0.127,2.085-0.889,0.145-0.653   c-1.94,0.236-3.936,0.454-4.915,0.835s-1.958,0.126-2.575-1.65c-0.617-1.778-1.669-2.667,0.235-3.628 c1.904-0.96,3.211-1.417,4.225-1.559c0.999-0.139,1.632-0.272,3.029-0.326C22.737,47.838,24.286,47.813,24.224,47.892z"/>
            <path fill="#000000" d="M75.017,46.892c1.083-0.722,6.549-3.008,8.233-2.951c0.243,0.008,1.04,0.211,1.643,2.861   c0.364,1.604,0.673,2.254-0.59,2.615c-1.262,0.359-5.039,1.331-5.68,2.254c-0.344,0.498-0.243,1.314,0.721,1.082   c2.326-0.562,4.945-0.541,5.72-0.45c0.772,0.089,0.953,1.455,1.043,2.801c0.09,1.347-0.09,3.148-0.812,3.33   c-0.722,0.18-4.441,0.077-4.462-0.018c-0.215-1.066-1.285-2.897-1.884-3.891c-0.597-0.991-1.097-1.616-1.564-2.381   c-0.472-0.77-1.128-1.6-2.75-4.745C74.479,47.099,75.017,46.892,75.017,46.892z"/>
            <path fill="#000000" d="M28.814,24.347c0.092,1.176,0.175,4.436-0.253,6.249l-9.677,0.271c-1.442,0,0.07-1.962,0.059-3.122   c-0.019-1.895-1.579-2.887-0.365-3.111C22.364,23.934,28.814,24.347,28.814,24.347z"/>
            <path fill="#000000" d="M28.359,31.822c-0.83,2.905-2.245,5.831-2.344,6.181c0,0-1.586,0.277-5.41,1.89   c-0.655,0.276-1.026,0.409-0.846-0.879c0.144-1.027-0.139-2.356-0.931-2.81c-0.833-0.476-1.333-1.315-0.421-1.721 c0.913-0.406,2.397-1.109,4.023-1.731C25.297,31.656,28.359,31.822,28.359,31.822z"/>
            <path fill="#000000" d="M63.795,22.677c0.033-0.327,0.274-5.896-2.212-7.691c-2.11-1.525-3.785-1.176-4.417-1.262   c-0.431-0.059-0.451-0.631-0.271-1.623c0.18-0.992,1.172-7.934,1.172-8.385s-1.803-1.442-2.614-1.442 c-0.812,0-2.547,0.404-2.534,0.855c0.014,0.451-0.712,7.98-0.893,9.152c-0.092,0.596-0.632,0.292-0.632,0   c0-0.901-0.99-8.114-1.531-8.745c-0.541-0.632-2.254-0.451-2.976-0.09c-0.721,0.361-2.164,1.172-1.983,1.713   c0.18,0.541,1.698,4.651,1.524,4.872s-0.515,0.221-0.692,0.265c-0.178,0.044-0.624,0.132-0.668-0.218   c-0.044-0.351-1.148-3.801-1.547-4.112s-1.995-0.487-3.059,0.133S38.157,7.65,38.29,8.093s2.43,5.242,2.482,5.364   c0.056,0.131,0.123,0.039,0.532-0.266c0.712-0.529,2.06-1.444,2.563-1.71c0.495-0.263,2.688-1.244,3.821-0.699   c0.89,0.428,1.167,1.156,1.386,2.22c0.219,1.063,0.554,2.565-0.369,3.223c-0.449,0.321-4.798,2.152-6.869,4.945   c-1.784,2.408-3.053,4.369-2.613,14.503c0,0,2.901,2.032,4.475,2.032c0.98,0,1.454-0.386,2.705-1.33   c0.413-0.312,1.933-1.092,2.306-1.242c0.455-0.182,0.978-0.233,1.051-0.219c0,0-0.731-6.536,0.062-7.921   c1.13-1.972,2.417-2.666,5.139-3.309C57.79,23.016,63.795,22.677,63.795,22.677z"/>
            <path fill="#000000" d="M50.331,34.977c-0.017-0.304-0.446-4.687-0.119-6.866c0.271-1.811,2.886-3.523,5.489-3.94   c2.483-0.396,6.765-0.878,8.385-0.845c1.623,0.034,9.673-1.394,10.042-1.454c0.731-0.12-0.81,1.461-0.675,4.166   c0.136,2.705,2.24,3.119,0.741,3.34c-1.174,0.174-5.578,0.373-7.133,0.676c-2.773,0.542-2.842,1.995-3.146,1.995   s-2.941,1.217-3.415,2.671c-0.293,0.904-0.583,1.691-1.284,1.725c-0.7,0.033-1.667-0.283-2.4-0.406   c-0.733-0.122-1.82-0.224-2.231-0.169c-0.411,0.056-0.655,0.386-1.454-0.068C51.881,35.091,50.342,35.158,50.331,34.977z"/>
            <path fill="#000000" d="M33.962,74.041c3.379,4.869,8.855,6.495,10.167,6.803v5.31c0,1.059-0.262,2.58-4.838,2.559   c-3.526-0.017-5.367-0.972-5.328-2.499L33.962,74.041z M39.229,84.02c-2.381-0.08-4.34,0.73-4.377,1.814   c-0.037,1.081,1.864,2.023,4.245,2.102c2.38,0.081,4.34-0.729,4.376-1.812C43.51,85.042,41.609,84.101,39.229,84.02z"/>
            <path fill="#000000" d="M28.551,33.228c0.683-1.765,0.97-4.281,1.068-6.197c0.105-2.047-0.333-4.645-0.606-5.793   c-0.327-1.379-1.629-4.581-1.958-5.265c-0.454-0.944-0.351-2.278,1.122-3.099c1.13-0.629,3.171-1.722,6.678-1.644   c2.085,0.046,2.497,0.746,2.724,2.071c0.187,1.085,0.277,4.292,0.414,4.062c0.32-0.536,1.477-1.642,2.368-2.566   c1.079-1.119,3.207-2.735,4.516-3.264c0.969-0.392,1.592-0.668,2.506-0.148c1.006,0.573,1.201,2.076,1.309,3.091   c0.105,1.015-0.741,1.566-1.488,1.96c-1.305,0.688-3.714,2.445-4.89,3.553c-1.226,1.155-2.756,2.345-3.459,6.283   c-0.64,3.582,0.007,9.292-0.26,9.131c-0.267-0.161-1.299-0.491-1.939-0.865c-0.641-0.374-1.51-0.782-2.388-0.938   c-0.684-0.121-1.604-0.257-2.406-0.204c-0.802,0.053-2.241,1.008-3.15,2.02c-1.103,1.226-2.077,2.836-1.712,1.982   C26.999,37.4,28.013,34.62,28.551,33.228z M31.741,12.195c-2.333,0.475-4.094,1.51-3.931,2.312   c0.163,0.801,2.188,1.066,4.522,0.591c2.334-0.475,4.094-1.51,3.931-2.312C36.1,11.985,34.075,11.72,31.741,12.195z M45.176,14.057   c0.33,1.145,1.235,1.888,2.021,1.661c0.786-0.227,1.155-1.338,0.825-2.482c-0.331-1.145-1.236-1.889-2.022-1.662   C45.215,11.801,44.845,12.913,45.176,14.057z"/>
        </g>
    </svg>